<?xml version="1.0" encoding="UTF-8"?>
<svg width="64" height="64" viewBox="0 0 64 64" fill="none" xmlns="http://www.w3.org/2000/svg">
    <path d="M32 8C18.745 8 8 18.745 8 32C8 45.255 18.745 56 32 56C45.255 56 56 45.255 56 32C56 18.745 45.255 8 32 8ZM32 52C20.954 52 12 43.046 12 32C12 20.954 20.954 12 32 12C43.046 12 52 20.954 52 32C52 43.046 43.046 52 32 52Z" fill="#2563EB"/>
    <path d="M32 24C27.582 24 24 27.582 24 32C24 36.418 27.582 40 32 40C36.418 40 40 36.418 40 32C40 27.582 36.418 24 32 24ZM32 38C28.686 38 26 35.314 26 32C26 28.686 28.686 26 32 26C35.314 26 38 28.686 38 32C38 35.314 35.314 38 32 38Z" fill="#2563EB"/>
    <path d="M32 28C29.791 28 28 29.791 28 32C28 34.209 29.791 36 32 36C34.209 36 36 34.209 36 32C36 29.791 34.209 28 32 28Z" fill="#2563EB"/>
</svg> 