<?xml version="1.0" encoding="UTF-8"?>
<svg width="64" height="64" viewBox="0 0 64 64" fill="none" xmlns="http://www.w3.org/2000/svg">
    <path d="M56 24H48V16C48 14.895 47.105 14 46 14H18C16.895 14 16 14.895 16 16V24H8C6.895 24 6 24.895 6 26V50C6 51.105 6.895 52 8 52H56C57.105 52 58 51.105 58 50V26C58 24.895 57.105 24 56 24ZM20 18H44V24H20V18ZM54 48H10V28H54V48Z" fill="#2563EB"/>
    <path d="M32 34C29.791 34 28 35.791 28 38C28 40.209 29.791 42 32 42C34.209 42 36 40.209 36 38C36 35.791 34.209 34 32 34ZM32 40C30.895 40 30 39.105 30 38C30 36.895 30.895 36 32 36C33.105 36 34 36.895 34 38C34 39.105 33.105 40 32 40Z" fill="#2563EB"/>
</svg> 