<?xml version="1.0" encoding="UTF-8"?>
<svg width="64" height="64" viewBox="0 0 64 64" fill="none" xmlns="http://www.w3.org/2000/svg">
    <path d="M32 8C18.745 8 8 18.745 8 32C8 45.255 18.745 56 32 56C45.255 56 56 45.255 56 32C56 18.745 45.255 8 32 8ZM32 52C20.954 52 12 43.046 12 32C12 20.954 20.954 12 32 12C43.046 12 52 20.954 52 32C52 43.046 43.046 52 32 52Z" fill="#2563EB"/>
    <path d="M40 30H34V24C34 22.895 33.105 22 32 22C30.895 22 30 22.895 30 24V30H24C22.895 30 22 30.895 22 32C22 33.105 22.895 34 24 34H30V40C30 41.105 30.895 42 32 42C33.105 42 34 41.105 34 40V34H40C41.105 34 42 33.105 42 32C42 30.895 41.105 30 40 30Z" fill="#2563EB"/>
</svg> 